#define Clear_width 12
#define Clear_height 12
static unsigned char Clear_bits[] = {
   0x20, 0x00, 0x22, 0x02, 0x04, 0x01, 0x70, 0x00, 0xf8, 0x00, 0xfb, 0x06,
   0xf8, 0x00, 0x70, 0x00, 0x04, 0x01, 0x22, 0x02, 0x20, 0x00, 0x00, 0x00 };
