#define Distant_Precipitation_width 12
#define Distant_Precipitation_height 12
static unsigned char Distant_Precipitation_bits[] = {
   0x00, 0x00, 0x00, 0x00, 0x1c, 0x00, 0xbe, 0x01, 0xff, 0x03, 0xff, 0x07,
   0xff, 0x07, 0xfe, 0x03, 0xdc, 0x01, 0x00, 0x00, 0x00, 0x00, 0x00, 0x00 };
