#define Heavy_Snow_width 12
#define Heavy_Snow_height 12
static unsigned char Heavy_Snow_bits[] = {
   0x00, 0x00, 0x1c, 0x00, 0xbe, 0x01, 0xff, 0x03, 0xff, 0x07, 0xfe, 0x07,
   0xfc, 0x03, 0x00, 0x00, 0x48, 0x00, 0x14, 0x02, 0x08, 0x05, 0x20, 0x02 };
