#define Light_Snow_width 12
#define Light_Snow_height 12
static unsigned char Light_Snow_bits[] = {
   0x00, 0x00, 0x1c, 0x00, 0xbe, 0x01, 0xff, 0x03, 0xff, 0x07, 0xfe, 0x07,
   0xfc, 0x03, 0x00, 0x00, 0x90, 0x00, 0x28, 0x00, 0x10, 0x00, 0x00, 0x00 };
