#define Light_Rain_width 12
#define Light_Rain_height 12
static unsigned char Light_Rain_bits[] = {
   0x00, 0x00, 0x1c, 0x00, 0xbe, 0x01, 0xff, 0x03, 0xff, 0x07, 0xfe, 0x07,
   0xfc, 0x03, 0x00, 0x00, 0x24, 0x01, 0x24, 0x01, 0x20, 0x01, 0x00, 0x00 };
