#define Mostly_Cloudy_width 12
#define Mostly_Cloudy_height 12
static unsigned char Mostly_Cloudy_bits[] = {
   0x00, 0x00, 0x10, 0x00, 0x82, 0x00, 0x38, 0x00, 0x7c, 0x00, 0x05, 0x00,
   0xf0, 0x00, 0xf8, 0x03, 0xfc, 0x07, 0xfc, 0x07, 0xf0, 0x01, 0x00, 0x00 };
