#define Partly_Cloudy_width 12
#define Partly_Cloudy_height 12
static unsigned char Partly_Cloudy_bits[] = {
   0x20, 0x00, 0x22, 0x02, 0x04, 0x01, 0x70, 0x00, 0xf8, 0x00, 0xfb, 0x06,
   0x38, 0x00, 0x90, 0x01, 0xc4, 0x07, 0xc2, 0x07, 0x80, 0x03, 0x00, 0x00 };
