#define Rain_width 12
#define Rain_height 12
static unsigned char Rain_bits[] = {
 0x00, 0x00, 0x1C, 0x00, 0xBE, 0x01, 0xFF, 0x03, 0xFF, 0x07, 0xFE, 0x07,
 0x88, 0x03, 0x22, 0x00, 0xAA, 0x02, 0xAA, 0x02, 0x08, 0x02, 0x00, 0x00 };
