#define Sunny1_width 12
#define Sunny1_height 12
static unsigned char Sunny1_bits[] = {
 0x00, 0x00, 0x78, 0x00, 0x84, 0x00, 0x02, 0x01, 0x02, 0x01, 0x02, 0x01,
 0x02, 0x01, 0x84, 0x00, 0x78, 0x00, 0x00, 0x00, 0x00, 0x00, 0x00, 0x00 };
