#define Thunder_width 12
#define Thunder_height 12
static unsigned char Thunder_bits[] = {
 0x00, 0x00, 0x1C, 0x00, 0xBE, 0x01, 0xFF, 0x03, 0xFF, 0x07, 0xFE, 0x07,
 0x8C, 0x03, 0x20, 0x00, 0x50, 0x00, 0x90, 0x00, 0x28, 0x03, 0x88, 0x04 };
